/* XPM */
static char * coll1_32x32_xpm[] = {
"32 32 7 1",
" 	c None",
".	c #000000",
"+	c #000000",
"@	c #600000",
"#	c #800000",
"$	c #A00000",
"%	c #FFFFFF",
"                                ",
"                                ",
"                                ",
"                                ",
"                                ",
"                     $$         ",
"                    #$##$       ",
"                   @$@#$@       ",
"                  ##@@##+       ",
"                 #$#@@#+        ",
"                @#@$#$+         ",
"              #$$@$$#+$$        ",
"             $#$@@##+#$##$      ",
"            $#$@#@@+@$@#$@      ",
"          ##@@@$$#+##@@##+      ",
"       @##@#@#$#++#$#@@#+       ",
"     #@#@@@@$$#++@#@$#$+        ",
"     ##@@$###++#$$@$$#+         ",
"     +##@#$+++$#$@@##+          ",
"      +##++++$#$@#@@+           ",
"       ++++##@@@$$#+            ",
"        @##@#@#$#++             ",
"      #@#@@@@$$#++              ",
"      ##@@$###++                ",
"      +##@#$+++                 ",
"       +##+++                   ",
"        +++                     ",
"                                ",
"                                ",
"                                ",
"                                ",
"                                "};
