/* XPM */
static char * exit_32x32_xpm[] = {
"32 32 3 1",
" 	c #000000",
".	c #FFF700",
"+	c #FFFBD0",
"                                ",
"                          .     ",
"                         .+.    ",
"   .                      .     ",
"  .+.                           ",
"   .                            ",
"                                ",
"                                ",
"               .                ",
"              .+.               ",
"               .                ",
"                                ",
"      .                .        ",
"     .+.              .+.       ",
"      .                .        ",
"                                ",
"                .               ",
"               .+.              ",
"   .            .               ",
"  .+.                           ",
"   .                            ",
"                                ",
"                                ",
"                            .   ",
"                           .+.  ",
"                            .   ",
"    .                           ",
"   .+.              .           ",
"    .              .+.          ",
"                    .           ",
"                                ",
"                                "};
