/* XPM */
static char * floor_32x32_xpm[] = {
"32 32 2 1",
" 	c #E5E6C7",
".	c #C4B59F",
"    .     .    .    .     .    .",
"    .     .    .    .     .    .",
"    .     .    .    .     .    .",
".   .    ..    .    ..    .   ..",
"...........    .    ............",
".        ..    .    ..        ..",
"          ..   .   ..          .",
"          ...........          .",
"          ..   .   ..          .",
"          .    .    .          .",
"          .    .    .          .",
"          .    .    .          .",
"          .    .    .          .",
"          .    .    .          .",
".         .    .    .         ..",
"................................",
"    .     .    .    .     .    .",
"    .     .    .    .     .    .",
"    .     .    .    .     .    .",
".   .    ..    ..   .    ..    .",
"...........    ............    .",
".        ..    ..        ..    .",
"          ..   .          ..   .",
"          ......          ......",
"          ..   .          ..   .",
"          .    .          .    .",
"          .    .          .    .",
"          .    .          .    .",
"          .    .          .    .",
"          .    .          .    .",
".         .    ..         .    .",
"................................"};
