/* XPM */
static char * player_32x32_xpm[] = {
"32 32 194 2",
"  	c None",
". 	c #000000",
"+ 	c #000000",
"@ 	c #020303",
"# 	c #020305",
"$ 	c #04070A",
"% 	c #06070B",
"& 	c #080D14",
"* 	c #090C1A",
"= 	c #0B1219",
"- 	c #0D111A",
"; 	c #0E1620",
"> 	c #0E1725",
", 	c #0F1622",
"' 	c #0F1623",
") 	c #161E2D",
"! 	c #171F2C",
"~ 	c #171F31",
"{ 	c #17233D",
"] 	c #182336",
"^ 	c #192137",
"/ 	c #1A233B",
"( 	c #1A243D",
"_ 	c #1A2448",
": 	c #1B2649",
"< 	c #1B2D4D",
"[ 	c #1C283F",
"} 	c #1E2943",
"| 	c #1E2948",
"1 	c #1E2A43",
"2 	c #1E2B45",
"3 	c #1F2A43",
"4 	c #1F2B47",
"5 	c #1F2C48",
"6 	c #1F2C55",
"7 	c #1F2D47",
"8 	c #1F2D49",
"9 	c #202942",
"0 	c #202E4B",
"a 	c #202E4C",
"b 	c #212D4C",
"c 	c #212F4E",
"d 	c #21355C",
"e 	c #222D4D",
"f 	c #223057",
"g 	c #223152",
"h 	c #223261",
"i 	c #223453",
"j 	c #233253",
"k 	c #233254",
"l 	c #233352",
"m 	c #243361",
"n 	c #243458",
"o 	c #24355B",
"p 	c #243759",
"q 	c #24375A",
"r 	c #243858",
"s 	c #243A62",
"t 	c #253355",
"u 	c #25375B",
"v 	c #25375D",
"w 	c #253966",
"x 	c #253967",
"y 	c #26365E",
"z 	c #26375E",
"A 	c #26395D",
"B 	c #273A60",
"C 	c #273B62",
"D 	c #273B63",
"E 	c #273F74",
"F 	c #283C60",
"G 	c #283C63",
"H 	c #293C5F",
"I 	c #293E64",
"J 	c #293E6A",
"K 	c #293E6D",
"L 	c #293E75",
"M 	c #294063",
"N 	c #29406C",
"O 	c #2A3F69",
"P 	c #2A3F6B",
"Q 	c #2A406C",
"R 	c #2B3D63",
"S 	c #2B426E",
"T 	c #2C4170",
"U 	c #2C426B",
"V 	c #2C4575",
"W 	c #2D467D",
"X 	c #2E4675",
"Y 	c #2E4777",
"Z 	c #2F4776",
"` 	c #2F4877",
" .	c #2F4878",
"..	c #2F4979",
"+.	c #304A7A",
"@.	c #314A7A",
"#.	c #324C7D",
"$.	c #334E80",
"%.	c #334E85",
"&.	c #344F80",
"*.	c #355184",
"=.	c #365084",
"-.	c #365184",
";.	c #375686",
">.	c #385385",
",.	c #385588",
"'.	c #38588C",
").	c #395486",
"!.	c #395487",
"~.	c #3B5788",
"{.	c #3B5789",
"].	c #3B578A",
"^.	c #3B588D",
"/.	c #3C5691",
"(.	c #3C5789",
"_.	c #3C578B",
":.	c #3C598D",
"<.	c #3C5A8C",
"[.	c #3C5A8E",
"}.	c #3D598C",
"|.	c #3D5A8C",
"1.	c #3E5A8D",
"2.	c #3E5B8E",
"3.	c #3F5C8F",
"4.	c #3F5D8F",
"5.	c #3F5E92",
"6.	c #415D8F",
"7.	c #446195",
"8.	c #446294",
"9.	c #456190",
"0.	c #456296",
"a.	c #456395",
"b.	c #466197",
"c.	c #466397",
"d.	c #466498",
"e.	c #486699",
"f.	c #49689A",
"g.	c #4A699C",
"h.	c #4A6A9F",
"i.	c #4C699F",
"j.	c #4C6B9F",
"k.	c #4D6C9E",
"l.	c #4E6C9D",
"m.	c #4F6FA1",
"n.	c #5070A3",
"o.	c #526DA4",
"p.	c #526EA1",
"q.	c #526F9E",
"r.	c #5273A7",
"s.	c #536FA5",
"t.	c #5374A5",
"u.	c #5476AA",
"v.	c #5575A7",
"w.	c #5576A7",
"x.	c #5676A7",
"y.	c #5676A8",
"z.	c #5678AB",
"A.	c #5777A9",
"B.	c #5778A9",
"C.	c #577BAF",
"D.	c #5878AA",
"E.	c #597AAB",
"F.	c #597FB0",
"G.	c #5A7BAC",
"H.	c #5B7CAD",
"I.	c #5B80B1",
"J.	c #5D7EAF",
"K.	c #5E7FAF",
"L.	c #5F82B4",
"M.	c #6084B9",
"N.	c #6182B5",
"O.	c #6283B4",
"P.	c #6285B8",
"Q.	c #6381B4",
"R.	c #6384B4",
"S.	c #6385B5",
"T.	c #6588B9",
"U.	c #668ABB",
"V.	c #6785B8",
"W.	c #6A8BBA",
"X.	c #6A8DBF",
"Y.	c #6C8ABD",
"Z.	c #6C8EBD",
"`.	c #6C8FC0",
" +	c #7094C3",
".+	c #7096C4",
"++	c #7295C4",
"@+	c #7297C9",
"#+	c #7695C5",
"$+	c #769BCA",
"%+	c #84A5D0",
"&+	c #8FB0DA",
"*+	c #E09E00",
"=+	c #FFFFFF",
"                                                                ",
"                                                                ",
"                                                                ",
"                            + + + +         + + +               ",
"                          + P. .Q N.+       + t.R.+             ",
"                        + z. .Q N.%+N.+       + P y.+           ",
"                        +  .Q  .Q N.w.+         + O B.+         ",
"                      + 4.6.-.].j.w.N.:.+       + d $++         ",
"                      + + 6.x.w + ( + 3.+       + 4 B.+         ",
"    + + + +           + *++ t.+ *++ ( W +     + 4 0.B.+         ",
"  + `.y.&+O.+           + b J.w ( q.W H +   + 4 d B.+           ",
"+ X.V + + [.Z.+         + 8.D.2.q.1.B + + + 4 d 0.o +           ",
"+ f.++^ & + G V +     + + ).h.p.}.9.B @ , d 0.0.o +             ",
"  + a.r.*.+ ) V b + + = Q d.F.v.|.R + m m m o 4 +   + +     +   ",
"    + + +   + 3 V + b V H.e.k.u.~.M 6 f 4 + + + + + +     + #++ ",
"          + ; A < V V >.z $.a.g.m.&.| S m m N N + + + + + S.y + ",
"      + + U.(.U.: { V F U <...c.v C.U _ L N %.G.Y.W.V.k.s.C +   ",
"    + (.U.(.c (.+ < V r 4.=.;.n.;.a '.%.E { * + o _.D O + +     ",
"  + T.(.c ' + + < V I { 7.l =.K.=.u { ` { h /./ * + + + +       ",
"  + l.5 ' + + < r + 2 !.< { @.K.K { 0 9 + + * /.Q.7 * + {.+     ",
"  + 8 #.f.X r < + + #.s > ! @.n.;.* + + + @+n + x /.Q.7 $ Q.+   ",
"    + + + + + + + ^.1 - ] + e @.K.4 + + + + M.Z + + x i.o.4.+   ",
"            + + +.[ + + + + + @..+J ~ + + + t D.+ + + + + +     ",
"            + L.k # +     + + + ].I.;.q i p j (.+   + + +       ",
"          # V 5.# +     + ,.+ + + g T >.b.D + + + +             ",
"          + T.} % + + + A.+     + + + + + + + +                 ",
"          + k. +S E.E.A.Y +                                     ",
"            + S ,.Y S + + + +                                   ",
"              + + + + + + +                                     ",
"                                                                ",
"                                                                ",
"                                                                "};
